<?xml version="1.0" encoding="UTF-8"?>
<svg xmlns="http://www.w3.org/2000/svg" width="512" height="512" viewBox="0 0 512 512">
  <defs>
    <linearGradient id="w" x1="0" y1="0" x2="0" y2="1">
      <stop stop-color="#8a5a38"/><stop offset="1" stop-color="#6e452c"/>
    </linearGradient>
  </defs>
  <rect width="512" height="512" fill="url(#w)"/>
  <g fill="none" stroke="#c49a6c" stroke-width="3" opacity=".35">
    <path d="M0 40c80 20 120-20 200 0s140 30 220 0 90-10 92 10"/>
    <path d="M0 120c90 15 130-15 210 5s150 20 230-5"/>
    <path d="M0 210c70 25 140-10 210 10s160 15 302 0"/>
    <path d="M0 300c100 10 150-20 240 5s170 25 272 0"/>
    <path d="M0 390c80 20 160-15 250 8s180 18 262-4"/>
    <path d="M0 470c90 12 140-18 230 6s190 14 282-2"/>
  </g>
  <g stroke="#4a2f1c" stroke-width="2" opacity=".25">
    <line x1="0" y1="96" x2="512" y2="96"/>
    <line x1="0" y1="192" x2="512" y2="192"/>
    <line x1="0" y1="288" x2="512" y2="288"/>
    <line x1="0" y1="384" x2="512" y2="384"/>
  </g>
</svg>
